# xmcd
#
# Track frame offsets:
# 150
# 23807
# 50515
# 71426
# 90240
# 114811
# 130584
# 152737
# 174552
# 195476
# 216169
# 235916
# 256025
# 273597
# 297814
#
# Disc length: 4190 seconds
#
#
# Revision: 0
# Processed by: cddbd v1.5.1PL0 Copyright (c) Steve Scherf et al.
# Submitted via: FreeRIP 2.51 
#
DISCID=c3105c0f
DTITLE=So Amazing - An All-Star Tribute To Luther Vandros
DYEAR=2005
DGENRE=R&B
TTITLE0=Mary J. Blige - Never Too Much
TTITLE1=Usher - Superstar
TTITLE2=Fantasia - 'Til My Baby Comes Home
TTITLE3=Beyonce and Stevie Wonder - So Amazing
TTITLE4=Aretha Franklin - A House Is Not A Home
TTITLE5=Donna Summer - Power Of Love
TTITLE6=Alicia Keys (feat Jermaine Hall) - Power Of Love
TTITLE7=Elton John and Luther Vandross - Anyone Who Had A Heart
TTITLE8=Celine Dion - Dance With My Father
TTITLE9=Wyclef Jean - Always and Forever
TTITLE10=Babyface - If Only For One Night
TTITLE11=Patti Labelle - Here and Now
TTITLE12=John Legend - Love Won't Let Me Wait
TTITLE13=Angie Stone - Since I Lost My Baby
TTITLE14=Jamie Foxx - Creepin'
EXTD=
EXTT0=
EXTT1=
EXTT2=
EXTT3=
EXTT4=
EXTT5=
EXTT6=
EXTT7=
EXTT8=
EXTT9=
EXTT10=
EXTT11=
EXTT12=
EXTT13=
EXTT14=
PLAYORDER=
